<svg height="496pt" viewBox="0 0 496 496" width="496pt" xmlns="http://www.w3.org/2000/svg"><path d="m182.046875 245.585938 65.953125-43.96875 65.953125 43.976562-31.984375-74.625 64.457031-42.96875h-69.152343l-29.273438-68.3125-29.273438 68.3125h-69.152343l64.449219 42.96875zm20.378906-101.585938h26.847657l18.726562-43.6875 18.726562 43.6875h26.847657l-31.550781 21.03125 16.015624 37.375-30.039062-20.023438-30.046875 20.023438 16.015625-37.375zm0 0"/><path d="m378.433594 352-31.152344-66.761719c36.925781-29.328125 60.71875-74.519531 60.71875-125.238281 0-88.222656-71.777344-160-160-160s-160 71.777344-160 160c0 50.71875 23.792969 95.910156 60.726562 125.238281l-31.160156 66.761719h-117.566406v144h496v-144zm-1.96875 33.632812-53.152344-19.929687-18.632812 49.679687-30.535157-97.710937c21.742188-3.601563 42.007813-11.527344 59.871094-22.984375zm-256.058594-233.632812h-16c1.128906-20.375 6.449219-39.617188 15.21875-56.878906l13.878906 8.015625c-7.433594 14.886719-12.007812 31.390625-13.097656 48.863281zm0 16c1.089844 17.472656 5.664062 33.976562 13.097656 48.871094l-13.878906 8.015625c-8.761719-17.261719-14.089844-36.503907-15.21875-56.878907h16zm15.59375-8c0-61.761719 50.238281-112 112-112s112 50.238281 112 112-50.238281 112-112 112-112-50.238281-112-112zm120-127.59375v-16c20.375 1.128906 39.617188 6.449219 56.878906 15.21875l-8.015625 13.878906c-14.886719-7.433594-31.390625-12.007812-48.863281-13.097656zm-16 0c-17.472656 1.089844-33.976562 5.664062-48.871094 13.097656l-8.007812-13.886718c17.261718-8.761719 36.503906-14.089844 56.878906-15.21875zm135.59375 135.59375h16c-1.128906 20.375-6.449219 39.617188-15.21875 56.878906l-13.878906-8.015625c7.433594-14.886719 12.007812-31.390625 13.097656-48.863281zm0-16c-1.089844-17.472656-5.664062-33.976562-13.097656-48.871094l13.878906-8.015625c8.761719 17.261719 14.089844 36.503907 15.21875 56.878907h-16zm-119.59375 151.59375v-16c17.472656-1.089844 33.976562-5.664062 48.871094-13.097656l8.015625 13.878906c-17.269531 8.769531-36.511719 14.089844-56.886719 15.21875zm-16-16v16c-20.375-1.128906-39.617188-6.449219-56.878906-15.21875l8.015625-13.878906c14.886719 7.433594 31.390625 12.007812 48.863281 13.097656zm8 32.40625c3.359375 0 6.648438-.296875 9.960938-.503906l10.160156 32.503906h-40.242188l10.160156-32.503906c3.3125.207031 6.601563.503906 9.960938.503906zm78.761719-39.59375-7.992188-13.839844c14.175781-9.4375 26.359375-21.621094 35.796875-35.796875l13.839844 7.992188c-10.878906 16.574219-25.070312 30.765625-41.644531 41.644531zm41.644531-199.167969-13.839844 7.992188c-9.4375-14.175781-21.621094-26.359375-35.796875-35.796875l7.992188-13.839844c16.574219 10.878906 30.765625 25.070312 41.644531 41.644531zm-199.167969-41.644531 7.992188 13.839844c-14.175781 9.4375-26.359375 21.621094-35.796875 35.796875l-13.839844-7.992188c10.878906-16.574219 25.070312-30.765625 41.644531-41.644531zm-41.644531 199.167969 13.839844-7.992188c9.4375 14.175781 21.621094 26.359375 35.796875 35.796875l-7.992188 13.839844c-16.574219-10.878906-30.765625-25.070312-41.644531-41.644531zm94.253906 78.910156-30.535156 97.710937-18.632812-49.679687-53.152344 19.929687 42.441406-90.945312c17.871094 11.449219 38.136719 19.382812 59.878906 22.984375zm258.152344 162.328125h-464v-112h94.105469l-21.640625 46.367188 74.847656-28.070313 29.367188 78.320313 30.199218-96.617188h50.242188l30.191406 96.617188 29.367188-78.320313 74.847656 28.070313-21.632813-46.367188h94.105469zm0 0"/><path d="m408 256h16v16h-16zm0 0"/><path d="m408 288h16v16h-16zm0 0"/><path d="m424 272h16v16h-16zm0 0"/><path d="m392 272h16v16h-16zm0 0"/><path d="m440 128h16v16h-16zm0 0"/><path d="m440 160h16v16h-16zm0 0"/><path d="m456 144h16v16h-16zm0 0"/><path d="m424 144h16v16h-16zm0 0"/><path d="m440 24h16v16h-16zm0 0"/><path d="m440 56h16v16h-16zm0 0"/><path d="m456 40h16v16h-16zm0 0"/><path d="m424 40h16v16h-16zm0 0"/><path d="m40 152h16v16h-16zm0 0"/><path d="m56 168h16v16h-16zm0 0"/><path d="m40 184h16v16h-16zm0 0"/><path d="m24 168h16v16h-16zm0 0"/><path d="m56 24h16v16h-16zm0 0"/><path d="m72 40h16v16h-16zm0 0"/><path d="m56 56h16v16h-16zm0 0"/><path d="m40 40h16v16h-16zm0 0"/><path d="m64 288h16v16h-16zm0 0"/><path d="m80 304h16v16h-16zm0 0"/><path d="m64 320h16v16h-16zm0 0"/><path d="m48 304h16v16h-16zm0 0"/></svg>